# xmcd CD database file
#
# Track frame offsets:
#	150
#	16188
#	29025
#	38738
#	53125
#	67913
#	81063
#	96900
#	109788
#	122513
#	134688
#	148625
#	161788
#	174338
#	183363
#	195350
#	209125
#	222775
#	236163
#	249450
#	265338
#
# Disc length: 3633 seconds
#
# Revision: 0
# Processed by: cddbd v1.5.1PL0 Copyright (c) Steve Scherf et al.
# Submitted via: CDex 1.51
#
DISCID=300e2f15
DTITLE=Artie Shaw and His Rythm Makers - Original 1938 Radio Transcriptions
DYEAR=1938
DGENRE=Jazz
TTITLE0=The Toy Trumpet
TTITLE1=Hillbilly From 10th Avenue
TTITLE2=My Old Kentucky Home
TTITLE3=Any Old Time
TTITLE4=Powerhouse
TTITLE5=Take My Word
TTITLE6=Azure
TTITLE7=The Call Of The Freaks
TTITLE8=The Old Apple Tree
TTITLE9=Lost In The Shuffle
TTITLE10=If Dreams Come True
TTITLE11=Moonlight On The Sunset Trail
TTITLE12=More Than Ever
TTITLE13=I'll Never Let You Cry
TTITLE14=In The Shade Of The New Apple Tree
TTITLE15=It's WonderFul
TTITLE16=Blue Fantasy
TTITLE17=Love's Old Sweet Song
TTITLE18=Indian Love Call
TTITLE19=Meade Lux Special
TTITLE20=Seet And Low
EXTD=YEAR: 1938
EXTT0=
EXTT1=
EXTT2=
EXTT3=
EXTT4=
EXTT5=
EXTT6=
EXTT7=
EXTT8=
EXTT9=
EXTT10=
EXTT11=
EXTT12=
EXTT13=
EXTT14=
EXTT15=
EXTT16=
EXTT17=
EXTT18=
EXTT19=
EXTT20=
PLAYORDER=
